<svg width="1084" height="283" viewBox="0 0 1084 283" fill="none" xmlns="http://www.w3.org/2000/svg">
<rect x="765.176" y="213.474" width="207.928" height="41.5857" rx="10.3964" fill="white"/>
<g clip-path="url(#clip0_74_155)">
<path d="M140.396 282.777C62.6655 282.777 0 219.202 0 141.088C0 62.9741 63.2689 0 141 0C218.731 0 281.396 64.1865 281.396 141.694C281.396 219.202 218.127 283.384 140.396 282.782V282.777ZM141 6.6581C67.4878 6.66315 7.23102 66.6063 6.6276 141.088C6.6276 214.964 66.281 275.513 140.396 276.119C213.908 276.119 274.165 216.171 274.769 142.301C274.769 67.8237 215.115 7.26935 141 6.66315V6.6581Z" fill="white"/>
<path d="M140.698 13.9277C70.1981 13.9277 13.5568 70.8449 12.9534 141.088C12.9534 211.933 69.5947 268.855 139.491 269.461C209.991 269.461 266.632 212.539 267.236 142.301C267.839 71.4562 211.198 13.9277 140.698 13.9277ZM230.482 137.456H165.242V127.161H229.879C222.648 84.1712 185.291 50.8656 140.698 50.8656C90.6843 50.8656 50.3153 91.4355 50.3153 141.088C50.3153 190.741 90.6894 231.917 140.095 231.917C173.836 231.917 202.76 213.752 218.429 186.503H230.482C213.612 219.804 179.267 242.819 140.1 242.819C84.6652 242.819 39.4738 196.798 39.4738 141.088C39.4738 85.3786 85.2686 39.964 140.703 39.964C196.138 39.964 238.92 83.56 241.329 137.451H230.482V137.456ZM150.599 123.211H159.439C159.5 123.211 159.555 123.205 159.61 123.2V127.767C159.555 127.767 159.495 127.757 159.439 127.757H150.599C149.141 127.757 147.949 128.954 147.949 130.419C147.949 131.884 149.141 133.082 150.599 133.082H159.439C159.5 133.082 159.555 133.076 159.61 133.071V152.99C159.61 163.543 151.012 172.181 140.507 172.181C130.002 172.181 121.404 163.543 121.404 152.99V133.076C121.404 133.076 121.424 133.076 121.434 133.076H130.274C131.732 133.076 132.924 131.879 132.924 130.414C132.924 128.949 131.732 127.752 130.274 127.752H121.434C121.434 127.752 121.414 127.752 121.404 127.752V123.2C121.404 123.2 121.424 123.2 121.434 123.2H130.274C131.732 123.2 132.924 122.003 132.924 120.538C132.924 119.073 131.732 117.876 130.274 117.876H121.434C121.434 117.876 121.414 117.876 121.404 117.876V113.324C121.404 113.324 121.424 113.324 121.434 113.324H130.274C131.732 113.324 132.924 112.127 132.924 110.662C132.924 109.197 131.732 108 130.274 108H121.459C122.173 98.0886 130.465 90.1979 140.507 90.1979C150.549 90.1979 158.841 98.0886 159.555 108.005C159.515 108.005 159.48 108 159.439 108H150.599C149.141 108 147.949 109.197 147.949 110.662C147.949 112.127 149.141 113.324 150.599 113.324H159.439C159.5 113.324 159.555 113.319 159.61 113.314V117.881C159.555 117.881 159.495 117.871 159.439 117.871H150.599C149.141 117.871 147.949 119.068 147.949 120.533C147.949 121.998 149.141 123.195 150.599 123.195V123.211ZM140.698 70.85C102.134 70.85 70.1981 102.337 70.1981 141.695C70.1981 181.052 99.8111 210.17 136.891 211.857V185.245C120.509 183.623 107.666 169.701 107.666 152.823V144.544C107.666 142.766 109.099 141.321 110.874 141.321C112.649 141.321 114.082 142.761 114.082 144.544V152.823C114.082 159.775 116.797 166.327 121.73 171.282C126.663 176.238 133.185 178.966 140.105 178.966C147.024 178.966 153.546 176.238 158.479 171.282C163.412 166.327 166.127 159.775 166.127 152.823V144.544C166.127 142.766 167.56 141.321 169.335 141.321C171.111 141.321 172.544 142.761 172.544 144.544V152.823C172.544 169.701 159.701 183.623 143.318 185.245V211.857C175.063 210.392 201.805 187.316 208.799 157.436H177.079V147.14H220.244C217.232 189.529 182.284 222.83 139.501 222.83C96.7186 222.83 58.7582 185.892 58.7582 141.083C59.965 96.275 96.1151 59.9434 140.708 59.9434C169.632 59.9434 194.941 75.6895 209.398 98.6948H196.746C184.089 81.7414 163.603 70.8399 140.708 70.8399L140.698 70.85Z" fill="white"/>
</g>
<path d="M1014.78 112.376V36.9072H1029.23L1073.76 91.2451H1066.75V36.9072H1084V112.376H1069.66L1025.03 58.0386H1032.03V112.376H1014.78Z" fill="white"/>
<path d="M960.473 113.67C954.507 113.67 948.973 112.7 943.869 110.759C938.838 108.818 934.454 106.087 930.716 102.565C927.05 99.0434 924.175 94.9105 922.091 90.1668C920.079 85.423 919.072 80.2479 919.072 74.6417C919.072 69.0354 920.079 63.8603 922.091 59.1165C924.175 54.3728 927.086 50.2399 930.824 46.718C934.561 43.1961 938.946 40.4649 943.977 38.5242C949.008 36.5836 954.471 35.6133 960.365 35.6133C966.33 35.6133 971.793 36.5836 976.752 38.5242C981.784 40.4649 986.132 43.1961 989.798 46.718C993.535 50.2399 996.446 54.3728 998.531 59.1165C1000.62 63.7885 1001.66 68.9635 1001.66 74.6417C1001.66 80.2479 1000.62 85.4589 998.531 90.2746C996.446 95.0184 993.535 99.1512 989.798 102.673C986.132 106.123 981.784 108.818 976.752 110.759C971.793 112.7 966.366 113.67 960.473 113.67ZM960.365 98.7918C963.743 98.7918 966.834 98.2168 969.637 97.0668C972.512 95.9168 975.027 94.2637 977.184 92.1074C979.34 89.9511 980.993 87.3996 982.143 84.4527C983.365 81.5058 983.976 78.2354 983.976 74.6417C983.976 71.0479 983.365 67.7775 982.143 64.8306C980.993 61.8838 979.34 59.3322 977.184 57.1759C975.099 55.0196 972.62 53.3665 969.745 52.2165C966.87 51.0665 963.743 50.4915 960.365 50.4915C956.987 50.4915 953.86 51.0665 950.985 52.2165C948.182 53.3665 945.702 55.0196 943.546 57.1759C941.39 59.3322 939.701 61.8838 938.479 64.8306C937.329 67.7775 936.754 71.0479 936.754 74.6417C936.754 78.1636 937.329 81.4339 938.479 84.4527C939.701 87.3996 941.354 89.9511 943.438 92.1074C945.594 94.2637 948.11 95.9168 950.985 97.0668C953.86 98.2168 956.987 98.7918 960.365 98.7918Z" fill="white"/>
<path d="M873.855 112.376V51.1386H849.705V36.9072H915.471V51.1386H891.321V112.376H873.855Z" fill="white"/>
<path d="M769.549 112.376L803.187 36.9072H820.437L854.183 112.376H835.855L808.254 45.7479H815.154L787.446 112.376H769.549ZM786.368 96.2045L791.004 82.9435H829.817L834.561 96.2045H786.368Z" fill="white"/>
<path d="M700.188 112.376V36.9072H732.855C739.611 36.9072 745.433 38.0213 750.321 40.2494C755.208 42.4057 758.982 45.5323 761.641 49.6292C764.301 53.7261 765.63 58.6136 765.63 64.2918C765.63 69.8981 764.301 74.7497 761.641 78.8466C758.982 82.8716 755.208 85.9622 750.321 88.1185C745.433 90.2748 739.611 91.3529 732.855 91.3529H709.891L717.653 83.6982V112.376H700.188ZM748.165 112.376L729.297 84.9919H747.949L767.032 112.376H748.165ZM717.653 85.6388L709.891 77.445H731.885C737.275 77.445 741.3 76.295 743.96 73.995C746.619 71.6231 747.949 68.3887 747.949 64.2918C747.949 60.123 746.619 56.8886 743.96 54.5886C741.3 52.2886 737.275 51.1386 731.885 51.1386H709.891L717.653 42.8369V85.6388Z" fill="white"/>
<path d="M577.192 112.376L610.829 36.9072H628.079L661.825 112.376H643.497L615.897 45.7479H622.797L595.089 112.376H577.192ZM594.011 96.2045L598.646 82.9435H637.459L642.203 96.2045H594.011Z" fill="white"/>
<path d="M545.526 113.67C539.704 113.67 534.278 112.736 529.246 110.867C524.287 108.926 519.975 106.195 516.309 102.673C512.643 99.1512 509.768 95.0184 507.684 90.2746C505.671 85.5308 504.665 80.3198 504.665 74.6417C504.665 68.9635 505.671 63.7525 507.684 59.0087C509.768 54.265 512.643 50.1321 516.309 46.6102C520.046 43.0883 524.395 40.393 529.354 38.5242C534.314 36.5836 539.74 35.6133 545.634 35.6133C552.175 35.6133 558.069 36.7633 563.315 39.0633C568.634 41.2914 573.091 44.5977 576.684 48.9821L565.472 59.3322C562.884 56.3853 560.009 54.1931 556.847 52.7556C553.684 51.2462 550.234 50.4915 546.497 50.4915C542.975 50.4915 539.74 51.0665 536.793 52.2165C533.847 53.3665 531.295 55.0196 529.139 57.1759C526.982 59.3322 525.293 61.8838 524.071 64.8306C522.921 67.7775 522.346 71.0479 522.346 74.6417C522.346 78.2354 522.921 81.5058 524.071 84.4527C525.293 87.3996 526.982 89.9511 529.139 92.1074C531.295 94.2637 533.847 95.9168 536.793 97.0668C539.74 98.2168 542.975 98.7918 546.497 98.7918C550.234 98.7918 553.684 98.0731 556.847 96.6355C560.009 95.1262 562.884 92.8621 565.472 89.8433L576.684 100.193C573.091 104.578 568.634 107.92 563.315 110.22C558.069 112.52 552.139 113.67 545.526 113.67Z" fill="white"/>
<path d="M455.098 113.67C449.132 113.67 443.598 112.7 438.495 110.759C433.463 108.818 429.079 106.087 425.341 102.565C421.676 99.0434 418.801 94.9105 416.716 90.1668C414.704 85.423 413.698 80.2479 413.698 74.6417C413.698 69.0354 414.704 63.8603 416.716 59.1165C418.801 54.3728 421.712 50.2399 425.449 46.718C429.187 43.1961 433.571 40.4649 438.602 38.5242C443.634 36.5836 449.096 35.6133 454.99 35.6133C460.956 35.6133 466.418 36.5836 471.378 38.5242C476.409 40.4649 480.757 43.1961 484.423 46.718C488.161 50.2399 491.072 54.3728 493.156 59.1165C495.24 63.7885 496.283 68.9635 496.283 74.6417C496.283 80.2479 495.24 85.4589 493.156 90.2746C491.072 95.0184 488.161 99.1512 484.423 102.673C480.757 106.123 476.409 108.818 471.378 110.759C466.418 112.7 460.992 113.67 455.098 113.67ZM454.99 98.7918C458.368 98.7918 461.459 98.2168 464.262 97.0668C467.137 95.9168 469.653 94.2637 471.809 92.1074C473.965 89.9511 475.618 87.3996 476.768 84.4527C477.99 81.5058 478.601 78.2354 478.601 74.6417C478.601 71.0479 477.99 67.7775 476.768 64.8306C475.618 61.8838 473.965 59.3322 471.809 57.1759C469.725 55.0196 467.245 53.3665 464.37 52.2165C461.495 51.0665 458.368 50.4915 454.99 50.4915C451.612 50.4915 448.485 51.0665 445.61 52.2165C442.807 53.3665 440.327 55.0196 438.171 57.1759C436.015 59.3322 434.326 61.8838 433.104 64.8306C431.954 67.7775 431.379 71.0479 431.379 74.6417C431.379 78.1636 431.954 81.4339 433.104 84.4527C434.326 87.3996 435.979 89.9511 438.063 92.1074C440.22 94.2637 442.735 95.9168 445.61 97.0668C448.485 98.2168 451.612 98.7918 454.99 98.7918Z" fill="white"/>
<path d="M336.002 112.376V36.9072H372.874C382.361 36.9072 389.477 38.7041 394.221 42.2979C399.037 45.8916 401.444 50.6354 401.444 56.5292C401.444 60.4824 400.474 63.9324 398.533 66.8793C396.593 69.7543 393.933 71.9825 390.555 73.5637C387.177 75.145 383.296 75.9356 378.911 75.9356L380.96 71.5153C385.704 71.5153 389.908 72.3059 393.574 73.8872C397.24 75.3965 400.079 77.6606 402.091 80.6794C404.176 83.6982 405.218 87.3998 405.218 91.7842C405.218 98.253 402.666 103.32 397.563 106.986C392.46 110.58 384.949 112.376 375.03 112.376H336.002ZM353.36 99.2233H373.736C378.265 99.2233 381.679 98.5045 383.979 97.067C386.351 95.5576 387.537 93.1857 387.537 89.9513C387.537 86.7888 386.351 84.4529 383.979 82.9435C381.679 81.3622 378.265 80.5716 373.736 80.5716H352.066V67.8496H370.718C374.958 67.8496 378.193 67.1309 380.421 65.6934C382.721 64.184 383.871 61.9199 383.871 58.9011C383.871 55.9542 382.721 53.762 380.421 52.3245C378.193 50.8151 374.958 50.0604 370.718 50.0604H353.36V99.2233Z" fill="white"/>
<path d="M938.737 204.186L913.725 128.717H928.279L950.597 196.963H943.373L966.553 128.717H979.491L1002.02 196.963H995.016L1017.87 128.717H1031.24L1006.23 204.186H991.35L970.758 142.625H974.639L953.723 204.186H938.737Z" fill="white"/>
<path d="M833.521 204.186L867.483 128.717H881.283L915.352 204.186H900.689L871.472 136.156H877.078L847.968 204.186H833.521ZM849.154 186.72L852.928 175.723H893.681L897.455 186.72H849.154Z" fill="white"/>
<path d="M779.549 204.186V128.717H793.565V192.327H833.024V204.186H779.549Z" fill="white"/>
<path d="M697.018 204.186V174.322L700.144 182.947L667.369 128.717H682.355L708.662 172.381H700.252L726.774 128.717H740.574L707.799 182.947L711.033 174.322V204.186H697.018Z" fill="white"/>
<path d="M600.667 204.186V128.717H631.717C638.402 128.717 644.116 129.795 648.859 131.951C653.675 134.107 657.377 137.198 659.964 141.223C662.552 145.248 663.846 150.028 663.846 155.562C663.846 161.097 662.552 165.876 659.964 169.901C657.377 173.855 653.675 176.909 648.859 179.066C644.116 181.15 638.402 182.192 631.717 182.192H608.429L614.683 175.831V204.186H600.667ZM650.045 204.186L630.962 176.801H645.949L665.139 204.186H650.045ZM614.683 177.341L608.429 170.656H631.07C637.252 170.656 641.888 169.326 644.978 166.667C648.141 164.008 649.722 160.306 649.722 155.562C649.722 150.747 648.141 147.045 644.978 144.457C641.888 141.87 637.252 140.576 631.07 140.576H608.429L614.683 133.676V177.341Z" fill="white"/>
<path d="M548.048 205.264C537.698 205.264 529.576 202.353 523.682 196.531C517.86 190.709 514.949 182.3 514.949 171.303V128.717H528.965V170.764C528.965 178.526 530.618 184.169 533.924 187.691C537.302 191.212 542.046 192.973 548.156 192.973C554.265 192.973 558.973 191.212 562.279 187.691C565.586 184.169 567.239 178.526 567.239 170.764V128.717H581.039V171.303C581.039 182.3 578.092 190.709 572.198 196.531C566.376 202.353 558.326 205.264 548.048 205.264Z" fill="white"/>
<path d="M470.493 205.264C465.677 205.264 461.221 204.33 457.124 202.461C453.099 200.592 449.793 197.897 447.205 194.375L455.183 184.78C457.268 187.655 459.532 189.811 461.976 191.248C464.491 192.686 467.222 193.405 470.169 193.405C478.004 193.405 481.921 188.769 481.921 179.497V140.468H455.075V128.717H495.937V178.742C495.937 187.655 493.745 194.303 489.36 198.688C485.048 203.072 478.758 205.264 470.493 205.264Z" fill="white"/>
<path d="M371.459 204.186V128.717H382.995L430.325 186.828H424.61V128.717H438.518V204.186H426.982L379.652 146.075H385.366V204.186H371.459Z" fill="white"/>
<path d="M337.03 204.186V128.717H351.046V204.186H337.03Z" fill="white"/>
<path d="M727.776 233.805H739.887V238.333H727.776V233.805ZM728.207 244.155H741.9V248.827H722.421V223.671H741.432V228.343H728.207V244.155Z" fill="white"/>
<path d="M704.86 234.991H716.935V239.663H704.86V234.991ZM705.291 248.827H699.469V223.671H718.48V228.343H705.291V248.827Z" fill="white"/>
<path d="M687.677 248.827V223.671H693.499V248.827H687.677Z" fill="white"/>
<path d="M661.25 248.827V223.671H672.139C674.391 223.671 676.332 224.042 677.961 224.785C679.59 225.504 680.848 226.546 681.734 227.911C682.621 229.277 683.064 230.906 683.064 232.799C683.064 234.668 682.621 236.285 681.734 237.651C680.848 238.992 679.59 240.022 677.961 240.741C676.332 241.46 674.391 241.819 672.139 241.819H664.484L667.072 239.268V248.827H661.25ZM677.242 248.827L670.953 239.699H677.17L683.531 248.827H677.242ZM667.072 239.915L664.484 237.183H671.815C673.612 237.183 674.954 236.8 675.84 236.033C676.727 235.243 677.17 234.165 677.17 232.799C677.17 231.409 676.727 230.331 675.84 229.565C674.954 228.798 673.612 228.415 671.815 228.415H664.484L667.072 225.647V239.915Z" fill="white"/>
<path d="M645.671 249.258C643.683 249.258 641.85 248.947 640.173 248.324C638.519 247.677 637.07 246.766 635.824 245.592C634.602 244.418 633.644 243.041 632.949 241.46C632.278 239.878 631.943 238.141 631.943 236.249C631.943 234.356 632.278 232.619 632.949 231.038C633.644 229.456 634.614 228.079 635.86 226.905C637.106 225.731 638.567 224.832 640.244 224.209C641.922 223.563 643.766 223.239 645.779 223.239C648.007 223.239 650.008 223.611 651.78 224.353C653.577 225.096 655.087 226.174 656.309 227.588L652.571 231.038C651.661 230.079 650.666 229.373 649.588 228.917C648.51 228.438 647.336 228.199 646.066 228.199C644.844 228.199 643.73 228.39 642.724 228.774C641.718 229.157 640.843 229.708 640.101 230.427C639.382 231.145 638.819 231.996 638.412 232.978C638.028 233.961 637.837 235.051 637.837 236.249C637.837 237.423 638.028 238.501 638.412 239.483C638.819 240.465 639.382 241.328 640.101 242.071C640.843 242.789 641.706 243.34 642.688 243.724C643.694 244.107 644.797 244.299 645.995 244.299C647.145 244.299 648.259 244.119 649.337 243.76C650.439 243.376 651.505 242.741 652.535 241.855L655.841 246.06C654.476 247.09 652.883 247.88 651.062 248.432C649.265 248.983 647.468 249.258 645.671 249.258ZM650.523 245.305V235.853H655.841V246.06L650.523 245.305Z" fill="white"/>
<path d="M601.658 248.827V223.671H607.48V244.083H620.094V248.827H601.658Z" fill="white"/>
<path d="M582.902 233.805H595.013V238.333H582.902V233.805ZM583.333 244.155H597.026V248.827H577.547V223.671H596.558V228.343H583.333V244.155Z" fill="white"/>
<path d="M546.726 248.827L557.939 223.671H563.689L574.937 248.827H568.828L559.628 226.618H561.928L552.692 248.827H546.726ZM552.332 243.437L553.878 239.016H566.815L568.397 243.437H552.332Z" fill="white"/>
<path d="M538.259 223.671H544.081V248.827H538.259V223.671ZM526.831 248.827H521.009V223.671H526.831V248.827ZM538.69 238.513H526.399V233.59H538.69V238.513Z" fill="white"/>
<path d="M506.691 249.258C504.75 249.258 502.941 248.947 501.264 248.324C499.611 247.677 498.174 246.766 496.952 245.592C495.73 244.418 494.772 243.041 494.077 241.46C493.406 239.878 493.071 238.141 493.071 236.249C493.071 234.356 493.406 232.619 494.077 231.038C494.772 229.456 495.73 228.079 496.952 226.905C498.198 225.731 499.647 224.832 501.3 224.209C502.953 223.563 504.762 223.239 506.727 223.239C508.907 223.239 510.872 223.622 512.621 224.389C514.394 225.132 515.879 226.234 517.077 227.695L513.339 231.145C512.477 230.163 511.519 229.432 510.464 228.953C509.41 228.45 508.26 228.199 507.014 228.199C505.84 228.199 504.762 228.39 503.78 228.774C502.798 229.157 501.947 229.708 501.228 230.427C500.51 231.145 499.947 231.996 499.539 232.978C499.156 233.961 498.964 235.051 498.964 236.249C498.964 237.447 499.156 238.537 499.539 239.519C499.947 240.501 500.51 241.352 501.228 242.071C501.947 242.789 502.798 243.34 503.78 243.724C504.762 244.107 505.84 244.299 507.014 244.299C508.26 244.299 509.41 244.059 510.464 243.58C511.519 243.077 512.477 242.322 513.339 241.316L517.077 244.766C515.879 246.227 514.394 247.341 512.621 248.108C510.872 248.875 508.895 249.258 506.691 249.258Z" fill="white"/>
<path d="M482.86 248.827V223.671H488.682V248.827H482.86Z" fill="white"/>
<path d="M448.536 248.827V223.671H453.352L464.062 241.424H461.51L472.04 223.671H476.819L476.891 248.827H471.429L471.393 232.044H472.399L463.99 246.168H461.366L452.777 232.044H453.999V248.827H448.536Z" fill="white"/>
<path d="M426.585 223.671H432.407V248.827H426.585V223.671ZM415.156 248.827H409.335V223.671H415.156V248.827ZM427.016 238.513H414.725V233.59H427.016V238.513Z" fill="white"/>
<path d="M392.33 248.827V228.415H384.28V223.671H406.202V228.415H398.152V248.827H392.33Z" fill="white"/>
<path d="M375.327 248.827V223.671H381.149V248.827H375.327Z" fill="white"/>
<path d="M340.092 248.827L331.863 223.671H337.9L345.052 245.952H342.033L349.508 223.671H354.899L362.086 245.952H359.175L366.507 223.671H372.077L363.847 248.827H357.594L351.233 229.277H352.886L346.346 248.827H340.092Z" fill="white"/>
<path d="M938.189 243.961V226.995H931.627V225.288H946.725V226.995H940.163V243.961H938.189Z" fill="#1957BB"/>
<path d="M919.346 244.122C917.959 244.122 916.625 243.899 915.345 243.455C914.082 242.992 913.104 242.406 912.411 241.694L913.184 240.174C913.842 240.814 914.723 241.356 915.825 241.801C916.946 242.228 918.119 242.441 919.346 242.441C920.52 242.441 921.471 242.299 922.201 242.014C922.947 241.712 923.49 241.312 923.828 240.814C924.183 240.316 924.361 239.765 924.361 239.16C924.361 238.431 924.148 237.844 923.721 237.399C923.312 236.955 922.77 236.608 922.094 236.359C921.418 236.092 920.671 235.861 919.853 235.666C919.035 235.47 918.217 235.265 917.399 235.052C916.581 234.821 915.825 234.519 915.132 234.145C914.456 233.772 913.905 233.283 913.478 232.678C913.069 232.056 912.864 231.246 912.864 230.25C912.864 229.326 913.104 228.481 913.584 227.716C914.082 226.934 914.838 226.311 915.852 225.849C916.865 225.369 918.164 225.129 919.746 225.129C920.796 225.129 921.836 225.28 922.867 225.582C923.899 225.867 924.788 226.267 925.535 226.783L924.868 228.357C924.068 227.823 923.214 227.432 922.307 227.183C921.418 226.934 920.556 226.809 919.72 226.809C918.599 226.809 917.675 226.961 916.946 227.263C916.216 227.565 915.674 227.974 915.318 228.49C914.98 228.988 914.812 229.557 914.812 230.197C914.812 230.926 915.016 231.513 915.425 231.958C915.852 232.402 916.403 232.749 917.079 232.998C917.772 233.247 918.528 233.469 919.346 233.665C920.164 233.861 920.974 234.074 921.774 234.305C922.592 234.536 923.339 234.839 924.014 235.212C924.708 235.568 925.259 236.048 925.668 236.653C926.095 237.257 926.309 238.049 926.309 239.027C926.309 239.934 926.06 240.778 925.562 241.561C925.064 242.326 924.299 242.948 923.268 243.428C922.254 243.89 920.947 244.122 919.346 244.122Z" fill="#1957BB"/>
<path d="M887.878 243.961L896.414 225.288H898.361L906.898 243.961H904.817L896.974 226.435H897.775L889.932 243.961H887.878ZM891.239 238.972L891.826 237.372H902.683L903.27 238.972H891.239Z" fill="#1957BB"/>
<path d="M876.059 244.122C874.654 244.122 873.356 243.89 872.165 243.428C870.973 242.948 869.942 242.281 869.07 241.427C868.199 240.574 867.514 239.569 867.016 238.413C866.536 237.257 866.296 235.995 866.296 234.625C866.296 233.256 866.536 231.993 867.016 230.837C867.514 229.681 868.199 228.677 869.07 227.823C869.959 226.969 871 226.311 872.191 225.849C873.383 225.369 874.681 225.129 876.086 225.129C877.437 225.129 878.709 225.36 879.9 225.822C881.092 226.267 882.097 226.943 882.915 227.85L881.661 229.103C880.896 228.321 880.052 227.761 879.127 227.423C878.202 227.067 877.206 226.889 876.139 226.889C875.019 226.889 873.978 227.085 873.018 227.476C872.058 227.85 871.222 228.392 870.511 229.103C869.799 229.797 869.239 230.615 868.83 231.558C868.439 232.482 868.243 233.505 868.243 234.625C868.243 235.746 868.439 236.777 868.83 237.72C869.239 238.644 869.799 239.462 870.511 240.174C871.222 240.867 872.058 241.41 873.018 241.801C873.978 242.174 875.019 242.361 876.139 242.361C877.206 242.361 878.202 242.183 879.127 241.828C880.052 241.472 880.896 240.903 881.661 240.12L882.915 241.374C882.097 242.281 881.092 242.966 879.9 243.428C878.709 243.89 877.429 244.122 876.059 244.122Z" fill="#1957BB"/>
<path d="M841.7 243.961V225.288H849.303C851.294 225.288 853.037 225.688 854.531 226.488C856.043 227.271 857.216 228.365 858.052 229.769C858.888 231.174 859.306 232.793 859.306 234.624C859.306 236.456 858.888 238.074 858.052 239.479C857.216 240.884 856.043 241.987 854.531 242.787C853.037 243.569 851.294 243.961 849.303 243.961H841.7ZM843.674 242.254H849.196C850.85 242.254 852.281 241.933 853.491 241.293C854.718 240.635 855.669 239.737 856.345 238.599C857.021 237.443 857.358 236.118 857.358 234.624C857.358 233.113 857.021 231.788 856.345 230.65C855.669 229.512 854.718 228.622 853.491 227.982C852.281 227.324 850.85 226.995 849.196 226.995H843.674V242.254Z" fill="#1957BB"/>
<path d="M823.274 244.122C821.869 244.122 820.562 243.89 819.353 243.428C818.161 242.948 817.121 242.281 816.232 241.427C815.36 240.556 814.676 239.551 814.178 238.413C813.697 237.257 813.457 235.995 813.457 234.625C813.457 233.256 813.697 232.002 814.178 230.864C814.676 229.708 815.36 228.703 816.232 227.85C817.121 226.978 818.161 226.311 819.353 225.849C820.544 225.369 821.851 225.129 823.274 225.129C824.679 225.129 825.977 225.369 827.169 225.849C828.36 226.311 829.391 226.969 830.263 227.823C831.152 228.677 831.837 229.681 832.317 230.837C832.815 231.993 833.064 233.256 833.064 234.625C833.064 235.995 832.815 237.257 832.317 238.413C831.837 239.569 831.152 240.574 830.263 241.427C829.391 242.281 828.36 242.948 827.169 243.428C825.977 243.89 824.679 244.122 823.274 244.122ZM823.274 242.361C824.394 242.361 825.426 242.174 826.368 241.801C827.329 241.41 828.156 240.867 828.849 240.174C829.56 239.462 830.112 238.644 830.503 237.72C830.894 236.777 831.09 235.746 831.09 234.625C831.09 233.505 830.894 232.482 830.503 231.558C830.112 230.615 829.56 229.797 828.849 229.103C828.156 228.392 827.329 227.85 826.368 227.476C825.426 227.085 824.394 226.889 823.274 226.889C822.154 226.889 821.113 227.085 820.153 227.476C819.193 227.85 818.357 228.392 817.645 229.103C816.952 229.797 816.401 230.615 815.992 231.558C815.6 232.482 815.405 233.505 815.405 234.625C815.405 235.728 815.6 236.75 815.992 237.693C816.401 238.635 816.952 239.462 817.645 240.174C818.357 240.867 819.193 241.41 820.153 241.801C821.113 242.174 822.154 242.361 823.274 242.361Z" fill="#1957BB"/>
<path d="M791.754 243.961V225.288H798.742C800.325 225.288 801.686 225.546 802.824 226.062C803.962 226.56 804.833 227.289 805.438 228.249C806.06 229.191 806.372 230.339 806.372 231.69C806.372 233.006 806.06 234.144 805.438 235.105C804.833 236.047 803.962 236.776 802.824 237.292C801.686 237.808 800.325 238.065 798.742 238.065H792.847L793.728 237.132V243.961H791.754ZM793.728 237.292L792.847 236.332H798.689C800.556 236.332 801.97 235.931 802.931 235.131C803.909 234.313 804.398 233.166 804.398 231.69C804.398 230.196 803.909 229.04 802.931 228.222C801.97 227.404 800.556 226.995 798.689 226.995H792.847L793.728 226.062V237.292Z" fill="#1957BB"/>
<defs>
<clipPath id="clip0_74_155">
<rect width="140.698" height="141.391" fill="white" transform="scale(2)"/>
</clipPath>
</defs>
</svg>
